<svg width="972" height="201" viewBox="0 0 972 201" fill="none" xmlns="http://www.w3.org/2000/svg">
<path fill-rule="evenodd" clip-rule="evenodd" d="M970.437 345.5C970.437 524.033 782.841 670.678 542.801 688.237C684.17 671.991 801.389 585.579 850.626 468.726C916.11 446.355 955.275 417.966 955.275 387.073C955.275 372.229 946.232 357.962 929.57 344.664C948.672 332.983 961.693 320.396 967.53 307.202C969.451 319.776 970.437 332.554 970.437 345.5ZM972 345.5C972 536.314 758.154 691 494.362 691C273.255 691 87.2388 582.325 32.8281 434.789C11.6361 420.007 0 403.912 0 387.073C0 375.129 5.85505 363.559 16.8226 352.566C16.7574 350.216 16.7247 347.861 16.7247 345.5C16.7247 332.782 17.6747 320.224 19.5261 307.862C17.0282 302.447 15.741 296.929 15.741 291.329C15.741 279.361 21.6188 267.769 32.6274 256.757C56.3846 191.91 105.557 134.544 171.965 90.576L171.882 90.4399L172.346 90.3239C257.266 34.2199 370.29 0 494.362 0C618.435 0 731.459 34.22 816.379 90.324C815.407 90.0774 817.358 90.5684 816.379 90.324L818.775 91.9179C885.295 136.467 934.253 194.541 957.297 260.099C966.262 270.106 971.016 280.565 971.016 291.329C971.016 295.741 970.217 300.103 968.656 304.404C970.864 317.88 972 331.594 972 345.5ZM494.325 1.00056C477.685 1.0144 461.339 10.2006 446.136 27.6388C438.936 35.8978 432.064 45.9277 425.599 57.5342C447.968 56.6522 470.837 56.1942 494.093 56.1907C494.161 25.2009 494.24 5.52447 494.325 1.00056ZM494.631 56.1907C494.564 25.2009 494.485 5.52447 494.4 1.00056C511.04 1.01446 527.386 10.2007 542.589 27.6388C549.789 35.8979 556.661 45.9277 563.126 57.5342C540.757 56.6523 517.888 56.1942 494.631 56.1907ZM494.091 57.1913C470.636 57.1948 447.578 57.6614 425.032 58.5591C418.117 71.1174 411.673 85.4858 405.796 101.425C398.871 120.205 392.739 141.146 387.55 163.844C421.59 161.737 457.01 160.624 493.379 160.624C493.568 160.624 493.757 160.624 493.947 160.625C493.984 119.41 494.033 84.113 494.091 57.1913ZM494.778 160.625C494.741 119.411 494.691 84.1131 494.634 57.1913C518.089 57.1948 541.147 57.6614 563.694 58.5592C570.608 71.1174 577.052 85.4859 582.929 101.425C589.867 120.24 596.009 141.223 601.204 163.969C566.989 161.808 531.367 160.654 494.778 160.625ZM493.946 161.625C493.757 161.625 493.568 161.625 493.379 161.625C456.919 161.625 421.421 162.744 387.317 164.863C380.74 193.859 375.697 225.698 372.499 259.546C406.328 257.467 441.515 256.369 477.638 256.369C483.076 256.369 488.493 256.394 493.887 256.443C493.9 222.5 493.92 190.611 493.946 161.625ZM494.838 256.452C494.825 222.506 494.805 190.614 494.779 161.626C531.458 161.654 567.158 162.816 601.436 164.989C608.157 194.643 613.272 227.269 616.452 261.975C577.762 258.764 536.995 256.861 494.838 256.452ZM493.887 257.444C488.493 257.395 483.076 257.37 477.638 257.37C441.473 257.37 406.255 258.471 372.404 260.557C370.816 277.586 369.694 295.12 369.077 313.053C408.85 316.006 450.688 317.587 493.872 317.599C493.874 296.984 493.879 276.88 493.887 257.444ZM494.853 317.599C494.85 296.987 494.845 276.886 494.838 257.453C537.04 257.862 577.839 259.772 616.544 262.991C618.015 279.255 619.061 295.973 619.648 313.053C579.875 316.006 538.037 317.587 494.853 317.599ZM493.872 318.6C450.684 318.588 408.835 317.008 369.043 314.058C368.699 324.413 368.522 334.901 368.522 345.5C368.522 369.914 369.457 393.735 371.234 416.713C410.211 419.531 451.15 421.032 493.379 421.032C493.547 421.032 493.714 421.032 493.882 421.032C493.875 396.721 493.871 371.445 493.871 345.5C493.871 336.448 493.871 327.477 493.872 318.6ZM494.843 421.032C494.85 396.721 494.854 371.444 494.854 345.5C494.854 336.448 494.854 327.477 494.853 318.6C538.041 318.588 579.89 317.008 619.682 314.058C620.027 324.413 620.203 334.901 620.203 345.5C620.203 369.863 619.272 393.635 617.503 416.569C578.383 419.446 537.268 420.997 494.843 421.032ZM493.883 422.033C493.715 422.033 493.547 422.033 493.379 422.033C451.189 422.033 410.277 420.536 371.312 417.726C374.01 452.093 378.592 484.564 384.751 514.303C414.791 515.926 445.849 516.777 477.638 516.777C483.092 516.777 488.525 516.752 493.935 516.702C493.911 487.543 493.893 455.721 493.883 422.033ZM494.79 516.694C494.814 487.537 494.831 455.718 494.842 422.032C537.229 421.997 578.317 420.452 617.424 417.582C614.794 451.161 610.364 482.932 604.423 512.116C569.338 514.756 532.628 516.328 494.79 516.694ZM494.789 517.695C532.543 517.33 569.183 515.766 604.214 513.139C598.44 541.275 591.258 566.987 582.929 589.576C571.416 620.797 557.73 645.994 542.589 663.361C527.386 680.799 511.04 689.986 494.4 689.999C494.567 681.133 494.71 614.065 494.789 517.695ZM493.936 517.703C494.015 614.068 494.158 681.133 494.325 689.999C477.685 689.986 461.339 680.799 446.136 663.361C430.995 645.994 417.309 620.797 405.796 589.576C397.682 567.572 390.658 542.604 384.962 515.319C414.943 516.932 445.929 517.778 477.638 517.778C483.092 517.778 488.525 517.753 493.936 517.703ZM319.432 589.386C361.979 648.328 419.565 685.637 482.985 689.641C440.189 679.37 403.473 611.714 383.368 515.232C345.374 513.151 309.008 509.836 274.852 505.447C286.613 536.529 301.693 564.81 319.432 589.386ZM605.815 513.018C585.813 610.677 548.863 679.291 505.741 689.641C569.16 685.637 626.746 648.328 669.293 589.386C687.987 563.487 703.727 533.474 715.742 500.404C681.545 505.796 644.677 510.062 605.815 513.018ZM716.138 499.311C681.906 504.732 644.974 509.022 606.024 511.994C611.955 482.802 616.375 451.034 618.998 417.465C661.552 414.299 701.743 409.564 738.691 403.5C734.551 437.379 726.848 469.571 716.138 499.311ZM738.818 402.446C701.878 408.526 661.669 413.276 619.076 416.452C620.839 393.552 621.765 369.819 621.765 345.5C621.765 334.861 621.588 324.335 621.241 313.941C663.465 310.768 703.355 306.05 740.05 300.022C741.465 314.902 742.194 330.082 742.194 345.5C742.194 364.9 741.039 383.923 738.818 402.446ZM739.952 299.005C703.292 305.037 663.422 309.76 621.207 312.937C620.621 295.945 619.582 279.31 618.122 263.123C660.783 266.716 700.882 271.902 737.491 278.425C738.457 285.215 739.279 292.077 739.952 299.005ZM737.339 277.359C700.722 270.856 660.645 265.687 618.029 262.106C614.858 227.401 609.751 194.766 603.038 165.091C640.627 167.511 676.494 171.148 710.052 175.84C722.772 206.979 732.102 241.141 737.339 277.359ZM709.607 174.753C676.094 170.089 640.301 166.476 602.807 164.071C593.241 122.111 580.457 86.1189 565.388 58.6275C589.624 59.6169 613.264 61.1049 636.163 63.0519C647.989 74.5505 659.074 87.4586 669.293 101.614C684.955 123.313 698.544 147.9 709.607 174.753ZM635.019 61.9459C612.294 60.034 588.849 58.5733 564.822 57.6019C547.612 26.5636 527.459 6.57172 505.741 1.35907C553.439 4.37045 597.837 26.2213 635.019 61.9459ZM353.706 61.9459C390.888 26.2211 435.287 4.37022 482.985 1.35902C461.266 6.5716 441.113 26.5635 423.903 57.6019C399.876 58.5733 376.431 60.034 353.706 61.9459ZM352.562 63.0519C375.461 61.1049 399.101 59.6169 423.337 58.6274C408.284 86.0912 395.51 122.039 385.947 163.944C348.505 166.299 312.744 169.858 279.237 174.465C290.278 147.724 303.825 123.235 319.432 101.614C329.65 87.4586 340.736 74.5505 352.562 63.0519ZM278.791 175.55C312.344 170.916 348.179 167.334 385.716 164.964C379.148 193.97 374.115 225.807 370.924 259.644C328.988 262.262 289.152 266.392 252.223 271.811C257.605 237.538 266.663 205.174 278.791 175.55ZM252.059 272.862C288.989 267.426 328.849 263.283 370.83 260.655C369.25 277.618 368.134 295.08 367.518 312.937C325.303 309.76 285.433 305.037 248.772 299.005C249.63 290.18 250.729 281.461 252.059 272.862ZM248.675 300.022C285.37 306.05 325.26 310.768 367.484 313.941C367.137 324.335 366.96 334.861 366.96 345.5C366.96 369.871 367.89 393.653 369.66 416.599C327.105 413.48 286.907 408.791 249.946 402.775C247.7 384.148 246.53 365.014 246.53 345.5C246.53 330.082 247.26 314.902 248.675 300.022ZM250.074 403.828C287.043 409.828 327.222 414.502 369.739 417.611C372.43 451.979 377.005 484.459 383.157 514.217C345.077 512.123 308.645 508.788 274.448 504.375C262.802 473.332 254.46 439.517 250.074 403.828ZM469.088 1.75231C391.733 6.36859 320.634 32.0225 262.725 72.5484C290.762 68.2902 320.525 64.7813 351.652 62.1201C385.586 29.2614 425.696 7.80232 469.088 1.75231ZM350.516 63.2273C319.099 65.9412 289.09 69.5204 260.86 73.8622C248.646 82.5198 237.028 91.8426 226.072 101.772C194.708 130.197 168.79 163.577 149.873 200.512C186.697 190.084 229.803 181.328 277.523 174.702C295.689 130.535 320.684 92.4571 350.516 63.2273ZM277.079 175.787C232.223 182.045 191.482 190.186 156.252 199.827C153.883 200.475 151.539 201.13 149.221 201.792C138.362 223.223 129.856 245.841 124.004 269.373C140.741 275.003 159.166 280.247 179.074 285.045C201.37 280.153 225.304 275.797 250.615 272.048C255.969 237.793 264.989 205.43 277.079 175.787ZM250.452 273.1C226.062 276.723 202.961 280.91 181.383 285.598C192.72 288.296 204.53 290.849 216.775 293.249C226.652 295.185 236.811 297.021 247.231 298.75C248.077 290.094 249.153 281.54 250.452 273.1ZM247.133 299.767C236.588 298.02 226.309 296.165 216.318 294.206C203.403 291.675 190.966 288.972 179.05 286.108C165.581 289.072 152.715 292.232 140.511 295.572C132.609 297.734 124.988 299.971 117.661 302.278C115.707 316.436 114.7 330.861 114.7 345.5C114.7 353.804 115.024 362.039 115.661 370.196C128.186 374.641 141.748 378.861 156.252 382.83C183.803 390.37 214.724 396.992 248.347 402.513C246.124 383.966 244.968 364.92 244.968 345.5C244.968 329.996 245.705 314.731 247.133 299.767ZM248.475 403.567C197.225 395.175 152.203 384.229 115.755 371.372C118.88 409.546 128.862 445.983 144.583 479.676C181.871 489.639 225.128 497.945 272.759 504.155C261.144 473.082 252.834 439.255 248.475 403.567ZM273.162 505.229C311.094 605.839 383.744 677.348 469.088 689.248C374.504 683.603 289.273 646.506 226.072 589.228C192.02 558.367 164.388 521.665 145.164 480.915C182.471 490.814 225.661 499.062 273.162 505.229ZM717.445 500.135C680.067 603.42 606.415 677.148 519.637 689.248C614.221 683.603 699.452 646.506 762.653 589.228C799.891 555.479 829.453 514.744 848.735 469.368C812.255 481.671 767.767 492.125 717.445 500.135ZM717.839 499.041C753.335 493.366 785.899 486.474 814.764 478.575C826.959 475.238 838.487 471.723 849.293 468.047C862.14 437.437 870.317 404.733 873.028 370.652C836.7 383.652 791.659 394.731 740.29 403.237C736.178 437.097 728.511 469.286 717.839 499.041ZM740.417 402.182C773.265 396.728 803.504 390.219 830.505 382.83C845.794 378.647 860.035 374.183 873.119 369.472C873.719 361.552 874.024 353.559 874.024 345.5C874.024 335.121 873.518 324.849 872.528 314.704C855.528 307.837 836.173 301.43 814.764 295.572C807.698 293.638 800.411 291.765 792.913 289.955C786.341 291.395 779.628 292.788 772.781 294.133C762.671 296.118 752.268 297.998 741.592 299.767C743.02 314.731 743.757 329.996 743.757 345.5C743.757 364.805 742.614 383.74 740.417 402.182ZM741.493 298.75C752.045 296.999 762.328 295.139 772.323 293.176C778.53 291.957 784.626 290.698 790.604 289.401C774.369 285.533 757.164 281.96 739.101 278.713C740.036 285.326 740.835 292.007 741.493 298.75ZM738.949 277.647C757.927 281.047 775.966 284.807 792.938 288.892C819.323 283.094 843.393 276.548 864.72 269.373C858.929 246.083 850.537 223.689 839.838 202.453C836.772 201.566 833.661 200.69 830.505 199.827C795.823 190.336 755.799 182.298 711.765 176.08C724.451 207.254 733.743 241.43 738.949 277.647ZM711.321 174.993C759.207 181.724 802.396 190.605 839.187 201.168C820.241 163.972 794.202 130.365 762.653 101.772C751.697 91.8426 740.079 82.5198 727.865 73.8622C699.635 69.5204 669.626 65.9413 638.209 63.2273C668.107 92.5214 693.145 130.702 711.321 174.993ZM637.072 62.1201C668.2 64.7813 697.963 68.2902 725.999 72.5484C668.091 32.0225 596.992 6.36862 519.637 1.75232C563.029 7.80234 603.138 29.2615 637.072 62.1201ZM175.851 89.4579C248.967 41.8055 342.586 10.322 445.924 2.76256C376.373 10.7556 312.667 35.7321 260.026 72.9615C229.776 77.6264 201.565 83.1668 175.851 89.4579ZM173.234 91.1763C199.105 84.7324 227.579 79.0556 258.176 74.2781C211.255 107.885 173.262 151.278 147.949 201.059C109.844 211.975 78.5787 224.695 56.0368 238.702C52.1429 236.229 48.5221 233.716 45.1846 231.167L45.1094 231.207C71.4179 177.053 115.895 129.104 173.234 91.1763ZM57.1509 239.404C79.2686 225.666 109.904 213.14 147.3 202.343C136.674 223.468 128.328 245.733 122.545 268.88C96.2341 259.941 74.1631 250.039 57.1509 239.404ZM56.0334 240.104C73.2764 250.887 95.6464 260.902 122.286 269.924C119.725 280.324 117.682 290.9 116.182 301.629C86.4872 311.028 61.6052 321.596 42.5838 333.048C32.4286 324.929 25.1733 316.47 21.1102 307.762C23.7121 290.476 28.0806 273.576 34.0821 257.158C39.582 251.68 46.3781 246.338 54.3869 241.156C54.9302 240.805 55.4791 240.454 56.0334 240.104ZM123.747 270.417C121.278 280.489 119.296 290.728 117.824 301.112C135.809 295.48 155.532 290.273 176.764 285.555C157.666 280.907 139.93 275.844 123.747 270.417ZM43.5696 333.828C62.2816 322.549 86.7619 312.109 116.021 302.797C114.118 316.79 113.138 331.041 113.138 345.5C113.138 353.609 113.446 361.652 114.052 369.621C90.0665 361.011 69.9523 351.571 54.3869 341.501C50.4909 338.98 46.882 336.422 43.5696 333.828ZM42.4331 334.518C59.298 347.705 83.669 359.927 114.144 370.8C117.193 408.98 127.087 445.439 142.72 479.176C141.981 478.976 141.245 478.776 140.511 478.575C97.4088 466.78 62.6282 452.761 38.6459 437.246C37.1374 436.27 35.672 435.288 34.2502 434.301C24.6704 408.239 19.2064 380.961 18.3936 352.85C23.8842 347.391 30.6626 342.066 38.6459 336.901C39.8798 336.103 41.1423 335.308 42.4331 334.518ZM445.924 688.237C309.312 672.538 195.252 591.315 143.298 480.417C96.9496 467.984 59.8214 452.986 34.9803 436.263C85.9389 571.649 248.127 673.768 445.924 688.237ZM916.629 437.246C899.829 448.115 877.729 458.25 851.181 467.4C863.918 436.791 871.999 404.112 874.638 370.073C895.717 362.442 913.807 354.159 928.432 345.354C944.872 358.498 953.713 372.532 953.713 387.073C953.713 404.781 940.605 421.734 916.629 437.246ZM927.447 344.574C913.111 353.215 895.389 361.364 874.727 368.89C875.297 361.16 875.587 353.361 875.587 345.5C875.587 335.347 875.104 325.297 874.157 315.366C890.688 322.133 904.941 329.339 916.629 336.901C920.525 339.422 924.134 341.98 927.447 344.574ZM928.583 343.884C915.016 333.275 896.59 323.291 874.037 314.131C872.544 299.097 869.988 284.341 866.439 269.924C892.569 261.075 914.591 251.269 931.696 240.722C931.922 240.867 932.146 241.012 932.37 241.156C941.987 247.378 949.855 253.831 955.83 260.472C960.841 274.758 964.618 289.4 967.075 304.337C962.294 317.346 950.407 329.831 932.37 341.501C931.136 342.299 929.874 343.093 928.583 343.884ZM795.224 289.446C820.775 283.776 844.16 277.398 864.978 270.417C868.42 284.464 870.917 298.835 872.405 313.473C850.327 304.622 824.377 296.552 795.224 289.446ZM930.586 240.017C913.711 250.419 891.984 260.113 866.18 268.88C860.458 245.978 852.227 223.938 841.76 203.013C878.663 213.818 908.848 226.322 930.586 240.017ZM931.708 239.32C909.546 225.353 878.731 212.652 841.112 201.724C815.8 151.665 777.678 108.034 730.549 74.2781C761.146 79.0556 789.62 84.7324 815.491 91.1763C872.804 129.088 917.268 177.011 943.581 231.136C939.954 233.908 935.992 236.638 931.708 239.32ZM812.874 89.4579C787.16 83.1669 758.949 77.6264 728.699 72.9615C676.058 35.7322 612.352 10.7556 542.801 2.76258C646.139 10.3221 739.758 41.8056 812.874 89.4579ZM41.4458 333.738C32.0195 326.215 25.0316 318.381 20.7401 310.308C19.1183 321.878 18.2874 333.619 18.2874 345.5C18.2874 347.361 18.3078 349.218 18.3484 351.072C24.5787 345.109 32.318 339.32 41.4458 333.738ZM32.0948 432.776C12.2929 418.499 1.5627 403.095 1.5627 387.073C1.5627 375.816 6.86018 364.864 16.8798 354.393C17.8233 381.405 23.0528 407.647 32.0948 432.776ZM19.9599 305.072C22.4444 289.652 26.3325 274.542 31.5293 259.811C22.2169 269.929 17.3037 280.488 17.3037 291.329C17.3037 295.965 18.2025 300.551 19.9599 305.072ZM54.9197 239.402C47.2585 244.24 40.6352 249.229 35.1265 254.349C37.9488 246.885 41.1093 239.523 44.5952 232.271C47.7896 234.682 51.234 237.06 54.9197 239.402ZM954.71 257.343C948.87 251.392 941.534 245.609 932.817 240.025C936.877 237.482 940.651 234.896 944.13 232.271C948.081 240.491 951.614 248.853 954.71 257.343ZM968.101 301.149C965.844 288.408 962.628 275.885 958.506 263.617C965.69 272.567 969.454 281.84 969.454 291.329C969.454 294.63 968.998 297.905 968.101 301.149Z" fill="white"/>
</svg>
